%TF.GenerationSoftware,KiCad,Pcbnew,(7.0.0)*%
%TF.CreationDate,2023-09-29T18:22:51-04:00*%
%TF.ProjectId,Tinnitus Device 2,54696e6e-6974-4757-9320-446576696365,rev?*%
%TF.SameCoordinates,Original*%
%TF.FileFunction,Soldermask,Top*%
%TF.FilePolarity,Negative*%
%FSLAX46Y46*%
G04 Gerber Fmt 4.6, Leading zero omitted, Abs format (unit mm)*
G04 Created by KiCad (PCBNEW (7.0.0)) date 2023-09-29 18:22:51*
%MOMM*%
%LPD*%
G01*
G04 APERTURE LIST*
%ADD10R,1.600000X1.600000*%
%ADD11O,1.600000X1.600000*%
%ADD12C,1.400000*%
%ADD13O,1.400000X1.400000*%
%ADD14C,1.524000*%
G04 APERTURE END LIST*
D10*
%TO.C,U1*%
X111759999Y-86359999D03*
D11*
X109219999Y-86359999D03*
X106679999Y-86359999D03*
X104139999Y-86359999D03*
X104139999Y-93979999D03*
X106679999Y-93979999D03*
X109219999Y-93979999D03*
X111759999Y-93979999D03*
%TD*%
D12*
%TO.C,RG1*%
X101600000Y-80010000D03*
D13*
X101599999Y-72389999D03*
%TD*%
D12*
%TO.C,RF1*%
X93980000Y-80010000D03*
D13*
X93979999Y-72389999D03*
%TD*%
%TO.C,R6*%
X161289999Y-88899999D03*
D12*
X153670000Y-88900000D03*
%TD*%
%TO.C,R5*%
X114300000Y-54610000D03*
D13*
X114299999Y-62229999D03*
%TD*%
D12*
%TO.C,R4*%
X127000000Y-54610000D03*
D13*
X126999999Y-62229999D03*
%TD*%
D12*
%TO.C,R3*%
X153370000Y-96520000D03*
D13*
X160989999Y-96519999D03*
%TD*%
D12*
%TO.C,R2*%
X165100000Y-66040000D03*
D13*
X165099999Y-73659999D03*
%TD*%
D12*
%TO.C,R1*%
X119380000Y-86360000D03*
D13*
X119379999Y-93979999D03*
%TD*%
D10*
%TO.C,K4*%
X172719999Y-71134999D03*
D11*
X172719999Y-73674999D03*
X172719999Y-76214999D03*
X180339999Y-76214999D03*
X180339999Y-73674999D03*
X180339999Y-71134999D03*
%TD*%
D10*
%TO.C,K3*%
X111774999Y-82539999D03*
D11*
X114314999Y-82539999D03*
X116854999Y-82539999D03*
X116854999Y-74919999D03*
X114314999Y-74919999D03*
X111774999Y-74919999D03*
%TD*%
D10*
%TO.C,K2*%
X129524999Y-74939999D03*
D11*
X126984999Y-74939999D03*
X124444999Y-74939999D03*
X124444999Y-82559999D03*
X126984999Y-82559999D03*
X129524999Y-82559999D03*
%TD*%
D10*
%TO.C,K1*%
X172519222Y-85933489D03*
D11*
X172519222Y-88473489D03*
X172519222Y-91013489D03*
X180139222Y-91013489D03*
X180139222Y-88473489D03*
X180139222Y-85933489D03*
%TD*%
D12*
%TO.C,J4*%
X185420000Y-76200000D03*
D13*
X185419999Y-71119999D03*
%TD*%
D14*
%TO.C,J3*%
X96600000Y-101600000D03*
X101600000Y-101600000D03*
X94100000Y-101600000D03*
X99100000Y-106600000D03*
X104100000Y-101600000D03*
%TD*%
D12*
%TO.C,J2*%
X185420000Y-86360000D03*
D13*
X185419999Y-91439999D03*
%TD*%
D14*
%TO.C,J1*%
X119340000Y-101600000D03*
X114340000Y-106600000D03*
X109340000Y-101600000D03*
X116840000Y-101600000D03*
X111840000Y-101600000D03*
%TD*%
%TO.C,H11*%
X160020000Y-60960000D03*
%TD*%
%TO.C,H10*%
X99060000Y-66040000D03*
%TD*%
%TO.C,H9*%
X81280000Y-86360000D03*
%TD*%
%TO.C,H8*%
X83820000Y-106680000D03*
%TD*%
%TO.C,H7*%
X129540000Y-109220000D03*
%TD*%
%TO.C,H6*%
X127000000Y-96520000D03*
%TD*%
%TO.C,H5*%
X81280000Y-99060000D03*
%TD*%
%TO.C,H4*%
X167640000Y-111760000D03*
%TD*%
%TO.C,H3*%
X185420000Y-106680000D03*
%TD*%
%TO.C,H2*%
X154940000Y-60960000D03*
%TD*%
%TO.C,H1*%
X134620000Y-58420000D03*
%TD*%
D12*
%TO.C,D4*%
X154940000Y-72480000D03*
D13*
X162559999Y-72479999D03*
%TD*%
D12*
%TO.C,D3*%
X163830000Y-96520000D03*
D13*
X171449999Y-96519999D03*
%TD*%
D12*
%TO.C,D2*%
X114300000Y-64770000D03*
D13*
X114299999Y-72389999D03*
%TD*%
D12*
%TO.C,D1*%
X127000000Y-64770000D03*
D13*
X126999999Y-72389999D03*
%TD*%
D10*
%TO.C,A1*%
X134619999Y-66039999D03*
D11*
X134619999Y-68579999D03*
X134619999Y-71119999D03*
X134619999Y-73659999D03*
X134619999Y-76199999D03*
X134619999Y-78739999D03*
X134619999Y-81279999D03*
X134619999Y-83819999D03*
X134619999Y-86359999D03*
X134619999Y-88899999D03*
X134619999Y-91439999D03*
X134619999Y-93979999D03*
X134619999Y-96519999D03*
X134619999Y-99059999D03*
X134619999Y-101599999D03*
X149859999Y-101599999D03*
X149859999Y-99059999D03*
X149859999Y-96519999D03*
X149859999Y-93979999D03*
X149859999Y-91439999D03*
X149859999Y-88899999D03*
X149859999Y-86359999D03*
X149859999Y-83819999D03*
X149859999Y-81279999D03*
X149859999Y-78739999D03*
X149859999Y-76199999D03*
X149859999Y-73659999D03*
X149859999Y-71119999D03*
X149859999Y-68579999D03*
X149859999Y-66039999D03*
%TD*%
M02*
