M48
; DRILL file {KiCad (7.0.0)} date Fri Sep 29 18:23:01 2023
; FORMAT={-:-/ absolute / inch / decimal}
; #@! TF.CreationDate,2023-09-29T18:23:01-04:00
; #@! TF.GenerationSoftware,Kicad,Pcbnew,(7.0.0)
; #@! TF.FileFunction,Plated,1,2,PTH
FMAT,2
INCH
; #@! TA.AperFunction,Plated,PTH,ViaDrill
T1C0.0118
; #@! TA.AperFunction,Plated,PTH,ComponentDrill
T2C0.0276
; #@! TA.AperFunction,Plated,PTH,ComponentDrill
T3C0.0300
; #@! TA.AperFunction,Plated,PTH,ComponentDrill
T4C0.0315
; #@! TA.AperFunction,Plated,PTH,ComponentDrill
T5C0.0394
%
G90
G05
T1
X4.9Y-3.7
X5.1Y-3.6
X5.6Y-2.9
T2
X3.7Y-2.85
X3.7Y-3.15
X4.0Y-2.85
X4.0Y-3.15
X4.5Y-2.15
X4.5Y-2.45
X4.5Y-2.55
X4.5Y-2.85
X4.7Y-3.4
X4.7Y-3.7
X5.0Y-2.15
X5.0Y-2.45
X5.0Y-2.55
X5.0Y-2.85
X6.0382Y-3.8
X6.05Y-3.5
X6.1Y-2.8535
X6.3382Y-3.8
X6.35Y-3.5
X6.4Y-2.8535
X6.45Y-3.8
X6.5Y-2.6
X6.5Y-2.9
X6.75Y-3.8
X7.3Y-2.8
X7.3Y-3.0
X7.3Y-3.4
X7.3Y-3.6
T3
X3.2Y-3.4
X3.2Y-3.9
X3.3Y-4.2
X3.7047Y-4.0
X3.8031Y-4.0
X3.9Y-2.6
X3.9016Y-4.1969
X4.0Y-4.0
X4.0984Y-4.0
X4.3047Y-4.0
X4.4031Y-4.0
X4.5016Y-4.1969
X4.6Y-4.0
X4.6984Y-4.0
X5.0Y-3.8
X5.1Y-4.3
X5.3Y-2.3
X6.1Y-2.4
X6.3Y-2.4
X6.6Y-4.4
X7.3Y-4.2
T4
X4.1Y-3.4
X4.1Y-3.7
X4.2Y-3.4
X4.2Y-3.7
X4.3Y-3.4
X4.3Y-3.7
X4.4Y-3.4
X4.4Y-3.7
X4.4006Y-2.9496
X4.4006Y-3.2496
X4.5006Y-2.9496
X4.5006Y-3.2496
X4.6006Y-2.9496
X4.6006Y-3.2496
X4.8994Y-2.9504
X4.8994Y-3.2504
X4.9994Y-2.9504
X4.9994Y-3.2504
X5.0994Y-2.9504
X5.0994Y-3.2504
X6.7921Y-3.3832
X6.7921Y-3.4832
X6.7921Y-3.5832
X6.8Y-2.8006
X6.8Y-2.9006
X6.8Y-3.0006
X7.0921Y-3.3832
X7.0921Y-3.4832
X7.0921Y-3.5832
X7.1Y-2.8006
X7.1Y-2.9006
X7.1Y-3.0006
T5
X5.3Y-2.6
X5.3Y-2.7
X5.3Y-2.8
X5.3Y-2.9
X5.3Y-3.0
X5.3Y-3.1
X5.3Y-3.2
X5.3Y-3.3
X5.3Y-3.4
X5.3Y-3.5
X5.3Y-3.6
X5.3Y-3.7
X5.3Y-3.8
X5.3Y-3.9
X5.3Y-4.0
X5.9Y-2.6
X5.9Y-2.7
X5.9Y-2.8
X5.9Y-2.9
X5.9Y-3.0
X5.9Y-3.1
X5.9Y-3.2
X5.9Y-3.3
X5.9Y-3.4
X5.9Y-3.5
X5.9Y-3.6
X5.9Y-3.7
X5.9Y-3.8
X5.9Y-3.9
X5.9Y-4.0
T0
M30
